<svg width="30" height="50" viewBox="0 0 30 50" fill="none" xmlns="http://www.w3.org/2000/svg">
<path fill-rule="evenodd" clip-rule="evenodd" d="M1.51703 28.666C0.545627 27.6848 0 26.3548 0 24.9681C0 23.5814 0.545627 22.2514 1.51703 21.2702L21.0764 1.53192C22.0495 0.550722 23.3692 -0.000326971 24.745 1.45555e-07C25.4263 0.000162117 26.1009 0.135685 26.7302 0.398832C27.3595 0.661979 27.9313 1.0476 28.4129 1.53367C28.8945 2.01974 29.2765 2.59674 29.5371 3.23174C29.7976 3.86673 29.9317 4.54728 29.9315 5.23452C29.9313 5.92177 29.797 6.60225 29.5361 7.23712C29.2753 7.87199 28.893 8.44881 28.4112 8.93466L12.5209 24.9681L28.4147 41.0015C28.9103 41.484 29.3058 42.0612 29.5779 42.6995C29.8501 43.3378 29.9935 44.0244 29.9998 44.7192C30.0061 45.414 29.8752 46.1032 29.6146 46.7464C29.3541 47.3896 28.9692 47.974 28.4824 48.4656C27.9956 48.9571 27.4166 49.346 26.7793 49.6094C26.1419 49.8728 25.4589 50.0055 24.7701 49.9998C24.0814 49.9941 23.4006 49.8501 22.7677 49.5761C22.1347 49.3022 21.5621 48.9038 21.0833 48.4043L1.51011 28.666H1.51703Z" fill="#434343"/>
</svg>
