<svg width="25" height="25" viewBox="0 0 25 25" fill="none" xmlns="http://www.w3.org/2000/svg">
<path d="M24.6024 15.6027C23.8453 18.0742 22.328 20.2439 20.2665 21.8031C18.4565 23.1654 16.3026 23.9962 14.0467 24.2024C11.7907 24.4085 9.52193 23.9818 7.495 22.9702C5.46807 21.9586 3.76321 20.402 2.57178 18.4753C1.38035 16.5485 0.749509 14.3279 0.750057 12.0625C0.741912 9.41835 1.60149 6.84454 3.19693 4.73594C4.75616 2.67437 6.92587 1.15708 9.39732 0.4C9.56021 0.349844 9.73369 0.345041 9.8991 0.386108C10.0645 0.427175 10.2156 0.512558 10.3361 0.633074C10.4566 0.75359 10.542 0.904679 10.5831 1.07009C10.6242 1.23551 10.6194 1.40899 10.5692 1.57187C10.0288 3.35949 9.98347 5.26023 10.4381 7.07156C10.8927 8.88289 11.8302 10.537 13.1508 11.8575C14.4713 13.178 16.1254 14.1155 17.9367 14.5702C19.748 15.0248 21.6488 14.9795 23.4364 14.4391C23.5993 14.3889 23.7728 14.3841 23.9382 14.4252C24.1036 14.4662 24.2547 14.5516 24.3752 14.6721C24.4957 14.7927 24.5811 14.9437 24.6222 15.1092C24.6632 15.2746 24.6584 15.4481 24.6083 15.6109L24.6024 15.6027Z" fill="white"/>
</svg>
